<svg width="49" height="40" viewBox="0 0 49 40" fill="none" xmlns="http://www.w3.org/2000/svg">
<g clip-path="url(#clip0_1_2)">
<path d="M18.9742 9.74793L20.4135 4.1316L20.4259 4.07446C20.6545 2.97127 21.3679 2.02972 22.3682 1.51119C23.9888 0.792823 25.7396 1.93568 26.2899 4.07446L27.7744 9.86221L39.1004 28.2949C40.2067 30.3351 42.2996 31.648 44.618 31.7561H46.5478C47.3788 31.8871 47.9579 32.6513 47.8593 33.4867L47.7978 37.3946C47.7978 38.2963 47.2599 39.4215 46.3582 39.4215H44.0528L43.9881 35.5074H43.5665C40.5283 35.5074 37.7072 33.9325 36.1127 31.3463L24.8548 13.0864H17.2724L18.1903 9.51658L18.9742 9.74793Z" fill="#D22F27"/>
<path d="M12.8536 13.0864H6.11746L8.41232 4.13127L8.42473 4.07413C8.65338 2.97094 9.36677 2.02939 10.367 1.51086C11.9877 0.792495 13.7384 1.93535 14.2887 4.07413L15.7733 9.86188L27.0993 28.2945C28.2055 30.3348 30.2984 31.6477 32.6168 31.7558H35.1024C35.5197 31.7558 35.8581 32.0941 35.8581 32.5115V37.8586C35.8581 38.276 35.5197 38.6144 35.1024 38.6144L34.2992 39.3759H28.9481L12.8536 13.0864Z" fill="#EA5A47"/>
<path d="M15.3967 21.8376L10.2203 38.6144" stroke="black" stroke-width="2" stroke-linecap="round" stroke-linejoin="round"/>
<path d="M8.18776 15.7084L1.12033 38.6144" stroke="black" stroke-width="2" stroke-linecap="round" stroke-linejoin="round"/>
<path d="M13.1736 18.6451H7.69446" stroke="black" stroke-width="2" stroke-linecap="round" stroke-linejoin="round"/>
<path d="M14.3636 23.8986H6.07388" stroke="black" stroke-width="2" stroke-linecap="round" stroke-linejoin="round"/>
<path d="M12.743 29.1522H4.45331" stroke="black" stroke-width="2" stroke-linecap="round" stroke-linejoin="round"/>
<path d="M11.1224 34.4056H2.83273" stroke="black" stroke-width="2" stroke-linecap="round" stroke-linejoin="round"/>
<path d="M32 24.5C32 24.5 28.5757 19.1216 24.8547 13.0865H18.0531" stroke="black" stroke-width="2" stroke-linecap="round" stroke-linejoin="round"/>
<path d="M38.5329 38.6144H43.9881" stroke="black" stroke-width="2" stroke-linecap="round" stroke-linejoin="round"/>
<path d="M18.9742 9.74793L20.4136 4.1316L20.4259 4.07446C20.6545 2.97127 21.3679 2.02972 22.3682 1.51119C23.9888 0.792823 25.7396 1.93568 26.2899 4.07446L27.7745 9.86221L39.1004 28.2949C40.2067 30.3351 42.2996 31.648 44.618 31.7561H46.2266C47.1283 31.7561 47.8593 32.487 47.8593 33.3887V36.9821C47.8593 37.8838 47.1283 38.6147 46.2266 38.6147H43.9881" stroke="black" stroke-width="2" stroke-linecap="round" stroke-linejoin="round"/>
<path d="M12.8536 13.0864H6.11746L8.41232 4.13127L8.42473 4.07413C8.65338 2.97094 9.36677 2.02939 10.367 1.51086C11.9877 0.792495 13.7384 1.93535 14.2887 4.07413L15.7733 9.86188L27.0993 28.2945C28.2055 30.3348 30.2984 31.6477 32.6168 31.7558H34.2255C35.1272 31.7558 35.8581 32.4867 35.8581 33.3884V36.9817C35.8581 37.8834 35.1272 38.6144 34.2255 38.6144H28.5892L12.8536 13.0864Z" stroke="black" stroke-width="2" stroke-linecap="round" stroke-linejoin="round"/>
</g>
<defs>
<clipPath id="clip0_1_2">
<rect width="48.9796" height="40" fill="white"/>
</clipPath>
</defs>
</svg>
